<svg width="18" height="23" viewBox="0 0 18 23" fill="none" xmlns="http://www.w3.org/2000/svg">
<path d="M3.79346 22.5889H14.6831C16.8057 22.5889 17.8618 21.5122 17.8618 19.3794V10.0688C17.8618 8.74609 17.708 8.17188 16.8877 7.33105L11.2378 1.57861C10.4585 0.778809 9.8125 0.604492 8.66406 0.604492H3.79346C1.68115 0.604492 0.614746 1.69141 0.614746 3.82422V19.3794C0.614746 21.5225 1.6709 22.5889 3.79346 22.5889ZM3.86523 20.938C2.80908 20.938 2.26562 20.374 2.26562 19.3486V3.85498C2.26562 2.83984 2.80908 2.25537 3.87549 2.25537H8.43848V8.21289C8.43848 9.50488 9.08447 10.1406 10.3662 10.1406H16.2109V19.3486C16.2109 20.374 15.6675 20.938 14.6011 20.938H3.86523ZM10.5508 8.59229C10.1406 8.59229 9.98682 8.42822 9.98682 8.01807V2.57324L15.8931 8.59229H10.5508Z" fill="#606164"/>
</svg>